<?xml version="1.0" encoding="utf-8"?>
<!-- Generator: Adobe Illustrator 16.0.0, SVG Export Plug-In . SVG Version: 6.00 Build 0)  -->
<!DOCTYPE svg PUBLIC "-//W3C//DTD SVG 1.1//EN" "http://www.w3.org/Graphics/SVG/1.1/DTD/svg11.dtd">
<svg version="1.1" xmlns="http://www.w3.org/2000/svg" xmlns:xlink="http://www.w3.org/1999/xlink" x="0px" y="0px"
	 width="480.167px" height="203.41px" viewBox="0 0 480.167 203.41" enable-background="new 0 0 480.167 203.41"
	 xml:space="preserve">
<g id="Calque_1" display="none">
	
		<image display="inline" overflow="visible" width="606" height="1077" xlink:href="8AC2A384.jpg"  transform="matrix(0 -1 1 0 -1069.373 288.9102)">
	</image>
</g>
<g id="Calque_2">
	<g>
		<path fill="#366680" d="M45.127,108.323c0,1.705-1.384,3.087-3.09,3.087h-13.82c-1.706,0-3.09-1.382-3.09-3.087V25.497
			c0-1.705,1.384-3.087,3.09-3.087h13.82c1.706,0,3.09,1.382,3.09,3.087V108.323z"/>
		<path fill="#1492AB" d="M120.127,101.175c0-3.526-2.16-6.765-5.684-6.765H32.01c-3.523,0-6.883,3.238-6.883,6.765v82.434
			c0,3.526,3.359,5.802,6.883,5.802h82.434c3.523,0,5.684-2.275,5.684-5.802V101.175z M103.127,169.364
			c0,2.234-1.811,4.046-4.045,4.046h-53.91c-2.234,0-4.045-1.812-4.045-4.046v-53.908c0-2.234,1.811-4.046,4.045-4.046h53.91
			c2.234,0,4.045,1.812,4.045,4.046V169.364z"/>
		<path fill="#366680" d="M162.354,111.41h66.213c4.213,0,6.561-4.108,6.561-7.132V98.63c0-3.526-3.534-4.22-7.058-4.22h-82.976
			c-3.525,0-7.967,0.693-7.967,4.22v82.979c0,3.523,4.441,7.802,7.967,7.802h82.976c3.523,0,7.058-4.278,7.058-7.802v-2.886
			c0-3.795-3.31-5.313-6.561-5.313h-66.213c-3.25,0-6.227-5.173-6.227-8.584v-47.872C156.127,113.543,159.104,111.41,162.354,111.41
			z"/>
		<path fill="#366680" d="M461.653,176.985c0.052,1.898-0.013,5.694-0.013,8.107c0,0.751-1.062,2.184-2.437,2.161
			c0,0-13.272,0.035-13.923,0.02l-25.416-41.368c-0.531-0.83,0.203-2.247,1.642-3.164l10.429-6.633
			c1.437-0.917,3.033-0.98,3.559-0.153L461.653,176.985z"/>
		<path fill="#366680" d="M455.918,94.41h-67.94c-1.958,0-4.851-0.009-4.851,1.696v47.872c0,1.706,2.893,3.432,4.851,3.432h67.94
			c1.962,0,6.209-1.79,6.209-6.521V99.197C462.127,95.142,457.88,94.41,455.918,94.41z M441.947,130.41h-50.392
			c-1.392,0-5.429,1.156-5.429,0.447v-19.828c0-0.708,4.037,0.381,5.429,0.381h50.392c1.389,0,0.18-1.089,0.18-0.381v19.828
			C442.127,131.566,443.336,130.41,441.947,130.41z"/>
		<path fill="#1492AB" d="M389.834,94.41h-10.811c-0.961,0-3.91-0.11-4.382,0.358l-18.272,17.737
			c-0.809,0.807-0.488,2.166,0.721,3.374l6.55,6.414c1.208,1.205,2.936,1.467,3.743,0.659l8.744-8.721V184.9
			c0,1.706,1.191,4.51,2.896,4.51h10.811c1.705,0,3.293-2.804,3.293-4.51V95.334C393.127,93.629,391.539,94.41,389.834,94.41z"/>
		<path fill="#366680" d="M344.091,94.41H333.28c-1.705,0-3.153-0.733-3.153,1.026v65.504l-60.602-66.331
			c-0.758-0.817-1.893-0.599-2.813-0.714c-0.321-0.121-0.889,0.515-1.376,0.515h-10.81c-1.706,0-2.4-0.733-2.4,1.026v89.361
			c0,1.761,0.694,4.612,2.4,4.612h10.81c1.706,0,2.79-2.852,2.79-4.612v-66.879c0,0,61.902,71.491,63.608,71.491h12.355
			c1.705,0,3.036-2.852,3.036-4.612V95.437C347.127,93.677,345.796,94.41,344.091,94.41z"/>
	</g>
</g>
</svg>
